<?xml version="1.0" encoding="UTF-8"?>
<svg version="1.1" xmlns="http://www.w3.org/2000/svg" width="498" height="222">
<path d="M0 0 C164.34 0 328.68 0 498 0 C498 73.26 498 146.52 498 222 C333.66 222 169.32 222 0 222 C0 148.74 0 75.48 0 0 Z " fill="#020101" transform="translate(0,0)"/>
<path d="M0 0 C5.26832918 1.49981263 8.35052113 5.05261495 10.94140625 9.69921875 C18.21604888 25.5101579 17.30785178 44.91686313 17.265625 61.953125 C17.26697739 63.91168262 17.26892265 65.8702399 17.27142334 67.82879639 C17.27434489 71.89956919 17.27017202 75.97025326 17.26074219 80.04101562 C17.24931888 85.22046553 17.25594438 90.3997087 17.26788712 95.57915115 C17.2751606 99.6115267 17.27279327 103.64385429 17.26763153 107.67623138 C17.26631175 109.58492814 17.26788301 111.49362946 17.27259064 113.40232086 C17.34131775 149.0631891 17.34131775 149.0631891 7.4375 161.6875 C2.42679199 166.44124863 -2.04179606 166.55866734 -8.796875 166.4375 C-12.86678188 165.88161028 -14.86279431 164.77672383 -17.64453125 161.81640625 C-32.04455695 142.51954185 -28.3241679 110.95672289 -28.26074219 88.10400391 C-28.24936721 83.96371417 -28.25611186 79.82368198 -28.26761246 75.68340111 C-28.40556035 17.40836679 -28.40556035 17.40836679 -17.875 4.625 C-12.03591069 -0.70634241 -7.66770612 -0.77572124 0 0 Z " fill="#020000" transform="translate(52,9)"/>
<path d="M0 0 C0.64324219 0.43441406 1.28648438 0.86882813 1.94921875 1.31640625 C7.10216239 5.23979717 10.02689735 10.33458773 13 16 C13.4434375 16.82242187 13.886875 17.64484375 14.34375 18.4921875 C30.09750093 50.09574883 28.81119841 101.53352262 18.11621094 134.45068359 C13.95447703 146.23820079 8.08671934 157.59433994 -3 164 C-3.99 164.33 -4.98 164.66 -6 165 C-5.32453125 165.30292969 -4.6490625 165.60585937 -3.953125 165.91796875 C2.5643782 168.97893485 6.62179493 171.22807033 9.1875 178.25 C9.81000949 181.12312071 10.18646101 183.71874088 10.4375 186.625 C10.78713636 190.41272727 11.69363701 192.89142379 14 196 C15.65 195.67 17.3 195.34 19 195 C19.66 192.69 20.32 190.38 21 188 C21.66 188 22.32 188 23 188 C23.34559158 190.90296927 23.51874316 193.12537491 21.9921875 195.69921875 C19.2147673 199.13357367 17.24015198 200.75728371 12.80078125 201.23828125 C6.66521105 201.42128884 1.9220081 200.87183827 -3 197 C-8.42153767 191.51571305 -10.10859042 184.93529333 -11.53222656 177.58496094 C-12.42344105 173.24687437 -13.31665227 170.58812221 -17 168 C-19.50312301 167.45232298 -19.50312301 167.45232298 -22.1875 167.5 C-30.85151112 166.98085153 -38.1713006 163.55962955 -44 157 C-44 156.34 -44 155.68 -44 155 C-44.66 155 -45.32 155 -46 155 C-58.6841115 137.84290207 -62.08742253 114.49817928 -62.203125 93.6796875 C-62.21013931 92.82604614 -62.21715363 91.97240479 -62.22438049 91.09289551 C-62.24177425 88.35354264 -62.24823225 85.61440606 -62.25 82.875 C-62.25067474 81.93891907 -62.25134949 81.00283813 -62.25204468 80.03839111 C-62.22225566 54.01726689 -61.79407118 24.09509687 -42.9921875 3.7890625 C-31.29956358 -6.71137232 -13.16535519 -9.20842098 0 0 Z M-33 4 C-34.71828104 6.56068506 -35.91380575 9.11701714 -37 12 C-37.27585937 12.7321875 -37.55171875 13.464375 -37.8359375 14.21875 C-44.05352103 33.67178363 -42.31693878 55.9651969 -42.26074219 76.15673828 C-42.24932953 80.29932815 -42.25613238 84.44166163 -42.26762009 88.58424282 C-44.26325373 125.9758444 -44.26325373 125.9758444 -31.5625 159.51953125 C-27.55417227 163.31742177 -25.28549863 164.43090268 -19.625 164.4375 C-14.23786433 164.28685303 -10.94594823 163.94594823 -7 160 C4.33344261 145.53108047 3.30857695 125.99285801 3.265625 108.578125 C3.26697658 106.62343294 3.26892119 104.66874122 3.27142334 102.71405029 C3.27435421 98.63615692 3.27014495 94.55835178 3.26074219 90.48046875 C3.24937951 85.30578153 3.25590008 80.1313026 3.26788712 74.95662308 C3.27518724 70.92407727 3.27278031 66.89157909 3.26763153 62.85903168 C3.26631586 60.95364099 3.26786787 59.0482457 3.27259064 57.14286041 C4.13097931 27.9018617 4.13097931 27.9018617 -7 2 C-12.08901413 -2.15429725 -16.59725619 -2.75260289 -23.125 -2.5078125 C-27.7391647 -1.69281058 -30.20134923 0.32873621 -33 4 Z " fill="#F40000" transform="translate(66,11)"/>
<path d="M0 0 C3.41147977 2.2426285 6.22625001 4.83983607 9.0703125 7.75390625 C9.7303125 5.77390625 10.3903125 3.79390625 11.0703125 1.75390625 C11.7303125 1.75390625 12.3903125 1.75390625 13.0703125 1.75390625 C13.7916136 17.76448856 14.21484375 33.72699602 14.0703125 49.75390625 C13.0803125 49.42390625 12.0903125 49.09390625 11.0703125 48.75390625 C10.88239136 47.68245361 10.88239136 47.68245361 10.69067383 46.58935547 C7.62019538 23.66999516 7.62019538 23.66999516 -2.9296875 3.75390625 C-7.11579902 1.66085049 -12.37101698 2.33026017 -16.9296875 2.75390625 C-22.69158621 5.42907351 -25.61948091 9.57535451 -28.01171875 15.37890625 C-30.79164065 25.59955526 -30.16490072 37.69987581 -25.48046875 47.1875 C-22.96232514 51.35480568 -20.0698073 55.04346555 -16.9296875 58.75390625 C-15.71605646 60.33318254 -14.50766457 61.91649955 -13.3046875 63.50390625 C-10.70897131 66.84207785 -7.95963033 69.79786447 -4.9296875 72.75390625 C5.41926454 83.33594279 13.74274228 95.9338726 19.0703125 109.75390625 C19.40933594 110.62273437 19.74835938 111.4915625 20.09765625 112.38671875 C23.97132247 124.63250228 25.03368653 142.20944482 19.0078125 153.87890625 C13.69627666 162.64985922 7.06711802 167.50153316 -2.81323242 170.28442383 C-12.05270919 172.33396978 -22.85899865 172.01805992 -31.00390625 167.06640625 C-31.63941406 166.63328125 -32.27492188 166.20015625 -32.9296875 165.75390625 C-33.9609375 165.15578125 -34.9921875 164.55765625 -36.0546875 163.94140625 C-36.6734375 163.54953125 -37.2921875 163.15765625 -37.9296875 162.75390625 C-38.2596875 164.73390625 -38.5896875 166.71390625 -38.9296875 168.75390625 C-39.9196875 168.75390625 -40.9096875 168.75390625 -41.9296875 168.75390625 C-42.83119769 150.73569069 -43.05603585 132.79061913 -42.9296875 114.75390625 C-42.2696875 114.75390625 -41.6096875 114.75390625 -40.9296875 114.75390625 C-40.75953125 115.49511719 -40.589375 116.23632812 -40.4140625 117 C-39.89403604 119.25990221 -39.37022025 121.518934 -38.84375 123.77734375 C-38.21027336 126.50690294 -37.60556611 129.24118806 -37.015625 131.98046875 C-33.01129882 150.9166173 -33.01129882 150.9166173 -21.3671875 165.69140625 C-15.16137103 167.6095677 -8.08944557 167.89460855 -1.9296875 165.56640625 C3.40334615 162.34436509 5.76767844 158.31161657 7.52734375 152.46875 C10.26756808 138.76762834 6.59241477 127.77407065 -0.94921875 116.4375 C-3.61136328 112.8302154 -6.55106876 109.562543 -9.60546875 106.28515625 C-13.58897985 101.94681139 -17.23418031 97.33712424 -20.9296875 92.75390625 C-21.63351562 91.90699219 -22.33734375 91.06007813 -23.0625 90.1875 C-35.57146874 74.9912433 -42.28103403 58.18022832 -42.3046875 38.44140625 C-42.32917969 37.37728516 -42.35367187 36.31316406 -42.37890625 35.21679688 C-42.41934298 24.17082906 -39.41688686 14.9839609 -31.9296875 6.75390625 C-29.5546875 4.50390625 -29.5546875 4.50390625 -26.9296875 2.75390625 C-26.42566406 2.38265625 -25.92164063 2.01140625 -25.40234375 1.62890625 C-18.37910622 -2.79711652 -7.58814663 -3.2274917 0 0 Z " fill="#F90000" transform="translate(438.9296875,3.24609375)"/>
<path d="M0 0 C11.88 0 23.76 0 36 0 C36 0.66 36 1.32 36 2 C33.03 2 30.06 2 27 2 C27.0606202 20.60266113 27.13818048 39.20517885 27.23571491 57.80768394 C27.2806137 66.44583285 27.32004192 75.08394107 27.34643555 83.72216797 C27.36946365 91.25431252 27.40291517 98.78632768 27.44870156 106.31836951 C27.47256911 110.30376114 27.49134013 114.28902515 27.49761391 118.27448654 C27.50369422 122.03217862 27.52379921 125.78954442 27.55427551 129.54711533 C27.56714667 131.57049504 27.56549389 133.59395117 27.5632782 135.61737061 C27.66024372 145.09405676 28.4916292 154.58768881 35 162 C41.31889175 166.12101636 48.67893307 165.87786549 56 165 C60.80964196 163.41037257 63.99437151 161.11148412 67.375 157.375 C71.77291752 148.24086362 72.43772624 139.32822965 72.38818359 129.31445312 C72.39225888 127.97780939 72.39760608 126.64116902 72.40411377 125.30453491 C72.41766912 121.70997245 72.41254099 118.11567123 72.40297651 114.52110481 C72.39533088 110.74823476 72.40243787 106.97538566 72.40713501 103.20251465 C72.41257302 96.87813328 72.40544694 90.55385749 72.39111328 84.22949219 C72.37473387 76.91802974 72.38012123 69.60681761 72.3965925 62.29536104 C72.41019594 56.00467678 72.41213435 49.71406791 72.40427649 43.4233737 C72.39960091 39.67141325 72.39897304 35.91957067 72.40888596 32.1676178 C72.41914358 27.99505686 72.4049373 23.82293044 72.38818359 19.65039062 C72.39425629 18.40675751 72.40032898 17.16312439 72.40658569 15.88180542 C72.39812622 14.74925323 72.38966675 13.61670105 72.38095093 12.4498291 C72.37981985 11.46397072 72.37868877 10.47811234 72.37752342 9.46237946 C71.93729793 6.59102857 71.2926062 5.72250344 69 4 C66.96658113 3.22186348 66.96658113 3.22186348 64.8125 2.8125 C63.554375 2.544375 62.29625 2.27625 61 2 C61 1.34 61 0.68 61 0 C70.24 0 79.48 0 89 0 C89 0.99 89 1.98 89 3 C87.01432292 3.09765625 85.02864583 3.1953125 83.04296875 3.29296875 C79.98603635 4.35091285 79.41516189 6.15994556 78 9 C77.55608384 11.67484912 77.55608384 11.67484912 77.62145996 14.53175354 C77.61325729 15.63195328 77.60505463 16.73215302 77.59660339 17.86569214 C77.60275162 19.06316071 77.60889984 20.26062927 77.61523438 21.49438477 C77.60698652 23.44233894 77.59873793 25.39029312 77.59046173 27.33824718 C77.58446872 29.42811272 77.58584359 31.51785878 77.58930969 33.60772896 C77.59613735 37.97597014 77.58021774 42.34394987 77.56091309 46.71214294 C77.52307596 55.99558119 77.51027689 65.27899651 77.5 74.5625 C77.48890903 84.56238115 77.47334769 94.56214093 77.42928743 104.56193966 C77.41105063 108.89318171 77.40699624 113.22412323 77.41422272 117.55539429 C77.41538617 119.60947085 77.40969444 121.66339597 77.40104675 123.717453 C77.39060743 126.20681621 77.39046235 128.69625642 77.40339661 131.18560791 C77.32014134 142.55273689 75.69389283 153.20697962 68 162 C59.9416741 169.55815395 50.13789214 169.52965893 39.6875 169.31640625 C33.91517636 169.04092994 29.114939 167.69254711 24 165 C23.3503125 164.70738281 22.700625 164.41476563 22.03125 164.11328125 C15.35074898 160.4067752 11.6298963 151.21578249 9.42346287 144.15504074 C8.89853845 141.48365304 8.85898789 138.96551149 8.84178162 136.24200439 C8.8319928 135.06693832 8.82220398 133.89187225 8.81211853 132.68119812 C8.80348534 130.75314079 8.80348534 130.75314079 8.79467773 128.78613281 C8.78509539 127.41609911 8.7750851 126.04606834 8.76467896 124.67604065 C8.73766237 120.95947269 8.71663526 117.24289207 8.69667697 113.5262804 C8.67479738 109.64117443 8.64741834 105.75610732 8.62062073 101.87103271 C8.57072052 94.51529079 8.52577178 87.15952727 8.48259836 79.80374312 C8.43320315 71.42893522 8.37829349 63.05416632 8.32291877 54.67939615 C8.20913975 37.45296683 8.10229183 20.22650129 8 3 C5.36 2.67 2.72 2.34 0 2 C0 1.34 0 0.68 0 0 Z " fill="#F6F6F6" transform="translate(103,6)"/>
<path d="M0 0 C12.21 0 24.42 0 37 0 C37 0.99 37 1.98 37 3 C34.03 3 31.06 3 28 3 C28 56.13 28 109.26 28 164 C44.7 164.6 44.7 164.6 52 159 C60.71057548 147.60924745 60.25798269 127.79128721 61 114 C61.99 114 62.98 114 64 114 C63.67 131.49 63.34 148.98 63 167 C42.54 167 22.08 167 1 167 C1 166.34 1 165.68 1 165 C3.64 165 6.28 165 9 165 C9 111.54 9 58.08 9 3 C6.03 3 3.06 3 0 3 C0 2.01 0 1.02 0 0 Z " fill="#F70000" transform="translate(249,4)"/>
<path d="M0 0 C12.21 0 24.42 0 37 0 C37 0.99 37 1.98 37 3 C33.7 3 30.4 3 27 3 C27 56.46 27 109.92 27 165 C40.46966022 165.05875263 40.46966022 165.05875263 51.25 158.875 C56.54983354 152.65216174 57.62077144 144.56990579 58.625 136.75 C58.74979736 135.83065674 58.87459473 134.91131348 59.00317383 133.96411133 C59.88432855 127.32358435 60.59842108 120.68836618 61 114 C61.66 114 62.32 114 63 114 C63 131.82 63 149.64 63 168 C42.21 168 21.42 168 0 168 C0 167.01 0 166.02 0 165 C2.97 165 5.94 165 9 165 C9 111.54 9 58.08 9 3 C6.03 3 3.06 3 0 3 C0 2.01 0 1.02 0 0 Z " fill="#FA0000" transform="translate(322,4)"/>
<path d="M0 0 C12.21 0 24.42 0 37 0 C37 0.99 37 1.98 37 3 C34.03 3 31.06 3 28 3 C28 56.13 28 109.26 28 164 C30.97 164 33.94 164 37 164 C37 165.32 37 166.64 37 168 C24.79 168 12.58 168 0 168 C0 167.01 0 166.02 0 165 C2.97 165 5.94 165 9 165 C9 111.54 9 58.08 9 3 C6.03 3 3.06 3 0 3 C0 2.01 0 1.02 0 0 Z " fill="#F70000" transform="translate(207,4)"/>
<path d="M0 0 C1.65125885 0.0001133 1.65125885 0.0001133 3.33587646 0.00022888 C4.51828918 0.00539017 5.7007019 0.01055145 6.91894531 0.01586914 C8.13406799 0.01728409 9.34919067 0.01869904 10.60113525 0.02015686 C14.48313862 0.02575551 18.36508437 0.0383078 22.24707031 0.05102539 C24.8785799 0.05604056 27.51009038 0.06060344 30.14160156 0.06469727 C36.59344415 0.0757245 43.04525311 0.09246131 49.49707031 0.11352539 C47.68820919 4.6961089 45.52932528 8.88466074 43.12207031 13.17602539 C42.73535156 13.88307617 42.34863281 14.59012695 41.95019531 15.31860352 C36.9208541 24.30559746 36.9208541 24.30559746 31.49707031 26.11352539 C29.74396465 26.2162259 27.98726677 26.26199151 26.23120117 26.2746582 C25.15676254 26.28426575 24.08232391 26.29387329 22.97532654 26.30377197 C21.23618736 26.31014679 21.23618736 26.31014679 19.46191406 26.31665039 C18.27231583 26.32235046 17.08271759 26.32805054 15.85707092 26.33392334 C13.34116506 26.34337291 10.82524683 26.34990715 8.30932617 26.35375977 C4.44656082 26.36349517 0.58432079 26.39453179 -3.27832031 26.42602539 C-5.71907235 26.43255235 -8.1598282 26.43780402 -10.60058594 26.44165039 C-12.34276146 26.46017059 -12.34276146 26.46017059 -14.12013245 26.47906494 C-15.19141891 26.47606384 -16.26270538 26.47306274 -17.36645508 26.4699707 C-18.31226944 26.47361633 -19.2580838 26.47726196 -20.2325592 26.48101807 C-20.98178146 26.35974548 -21.73100372 26.2384729 -22.50292969 26.11352539 C-23.16292969 25.12352539 -23.82292969 24.13352539 -24.50292969 23.11352539 C-22.76699434 20.00129249 -21.01181656 16.90033622 -19.25292969 13.80102539 C-18.51623047 12.47941406 -18.51623047 12.47941406 -17.76464844 11.13110352 C-17.28125 10.28354492 -16.79785156 9.43598633 -16.29980469 8.56274414 C-15.85991211 7.7824585 -15.42001953 7.00217285 -14.96679688 6.19824219 C-11.04603543 0.61462278 -6.45902007 -0.01481427 0 0 Z " fill="#F8F8F8" transform="translate(314.5029296875,185.886474609375)"/>
<path d="M0 0 C20.46 0 40.92 0 62 0 C60.77481317 6.12593414 58.95671776 9.96246911 53.73828125 13.55859375 C47.68413598 17 47.68413598 17 45 17 C45 17.66 45 18.32 45 19 C45.5775 19.268125 46.155 19.53625 46.75 19.8125 C49.05550043 21.02929189 51.02056192 22.30333879 53 24 C53 24.66 53 25.32 53 26 C40.11304348 27.40869565 40.11304348 27.40869565 35.046875 24.03125 C33.30749533 22.38560936 31.57568602 20.73193004 29.8515625 19.0703125 C24.78963293 15.39521295 19.0599785 15.7788329 13 16 C14.15173355 13.53199953 15.04783565 11.95216435 17 10 C19.52197266 9.68115234 19.52197266 9.68115234 22.6640625 9.5859375 C23.78554688 9.54726562 24.90703125 9.50859375 26.0625 9.46875 C27.238125 9.4378125 28.41375 9.406875 29.625 9.375 C30.80835938 9.33632812 31.99171875 9.29765625 33.2109375 9.2578125 C36.14046691 9.16331155 39.06998597 9.07775442 42 9 C42.66 7.68 43.32 6.36 44 5 C27.44681087 2.9482425 27.44681087 2.9482425 12.546875 8.01025391 C8.38929262 13.43856078 6.06690961 19.53144625 4 26 C-1.28 26 -6.56 26 -12 26 C-12 25.01 -12 24.02 -12 23 C-11.34 23 -10.68 23 -10 23 C-9.75507813 22.15824219 -9.51015625 21.31648438 -9.2578125 20.44921875 C-7.60862817 15.92676606 -5.22994759 12.05121099 -2.74609375 7.94726562 C-0.52403717 4.23741964 -0.52403717 4.23741964 0 0 Z " fill="#F9F9F9" transform="translate(235,186)"/>
<path d="M0 0 C20.79 0 41.58 0 63 0 C59.17212392 3.82787608 56.73188436 5.67707495 52 8 C51.01 7.67 50.02 7.34 49 7 C46.48658383 6.91532721 44.001081 6.88390465 41.48828125 6.90234375 C40.84258179 6.90335083 40.19688232 6.90435791 39.53161621 6.90539551 C37.12522601 6.91061789 34.71886118 6.92457917 32.3125 6.9375 C26.929375 6.958125 21.54625 6.97875 16 7 C28.54 9.31 41.08 11.62 54 14 C53 20 53 20 50 26 C29.87 26 9.74 26 -11 26 C-5.375 20.375 -5.375 20.375 -2 18 C-1.01 18.66 -0.02 19.32 1 20 C3.68594915 20.17162025 6.26544901 20.23224552 8.94921875 20.1953125 C9.72183548 20.1924826 10.49445221 20.18965271 11.29048157 20.18673706 C13.75631243 20.17554878 16.22177906 20.15044703 18.6875 20.125 C20.36002079 20.11496843 22.03254728 20.10584289 23.70507812 20.09765625 C27.80352559 20.07561392 31.90170106 20.04109363 36 20 C27.63139133 17.8226856 19.23576306 15.97058003 10.75 14.3125 C9.61175781 14.08755859 8.47351563 13.86261719 7.30078125 13.63085938 C4.53437156 13.08455158 1.76745741 12.5409705 -1 12 C-2.06834141 8.41395891 -1.74634541 7.28723841 0 4 C0 2.68 0 1.36 0 0 Z " fill="#F6F6F6" transform="translate(106,185)"/>
<path d="M0 0 C20.46 0 40.92 0 62 0 C57.93127312 3.2549815 54.48137427 5.53963766 50 8 C49.01 7.34 48.02 6.68 47 6 C42.41175145 5.61180871 37.814341 5.67082567 33.21166992 5.68432617 C30.94206059 5.68749364 28.67374575 5.66399451 26.40429688 5.63867188 C24.96614748 5.6363996 23.52799457 5.63569505 22.08984375 5.63671875 C20.12325806 5.63224731 20.12325806 5.63224731 18.11694336 5.62768555 C16.5740564 5.8119812 16.5740564 5.8119812 15 6 C14.01 7.485 14.01 7.485 13 9 C25.87 9.495 25.87 9.495 39 10 C34 16 34 16 31.16918945 16.7253418 C30.16073975 16.71672119 29.15229004 16.70810059 28.11328125 16.69921875 C27.01048828 16.71146484 25.90769531 16.72371094 24.77148438 16.73632812 C23.63001953 16.72021484 22.48855469 16.70410156 21.3125 16.6875 C19.03777448 16.67859945 16.76295807 16.68187517 14.48828125 16.69921875 C13.48321533 16.68721436 12.47814941 16.67520996 11.44262695 16.6628418 C10.63656006 16.774104 9.83049316 16.88536621 9 17 C8.34 17.99 7.68 18.98 7 20 C21.85 20 36.7 20 52 20 C47 26 47 26 44.12089539 26.7215271 C43.06610489 26.70820343 42.01131439 26.69487976 40.92456055 26.68115234 C39.72369308 26.68069916 38.52282562 26.68024597 37.28556824 26.67977905 C35.99894791 26.64881134 34.71232758 26.61784363 33.38671875 26.5859375 C32.0486695 26.5747375 30.71059553 26.5662011 29.37251282 26.56021118 C25.86196156 26.53737444 22.35291568 26.47850126 18.84295654 26.4119873 C15.25683963 26.35045009 11.67047784 26.32317212 8.08398438 26.29296875 C1.05537377 26.22874887 -5.97224072 26.12643516 -13 26 C-13.33 25.34 -13.66 24.68 -14 24 C-13.26265625 23.33097656 -12.5253125 22.66195312 -11.765625 21.97265625 C-8.64573812 18.84946906 -6.74621196 15.34162992 -4.75 11.4375 C-4.399375 10.77814453 -4.04875 10.11878906 -3.6875 9.43945312 C-2.02940766 6.2667572 -0.87360845 3.49443378 0 0 Z " fill="#F4F4F4" transform="translate(430,187)"/>
<path d="M0 0 C5.94 0 11.88 0 18 0 C16.68 2.64 15.36 5.28 14 8 C14.56581787 7.75765625 15.13163574 7.5153125 15.71459961 7.265625 C31.45911992 0.70606521 45.01613439 -1.11721823 62 0 C61 2 61 2 58.43969727 3.05322266 C57.32651123 3.4197998 56.2133252 3.78637695 55.06640625 4.1640625 C53.2575293 4.76347656 53.2575293 4.76347656 51.41210938 5.375 C50.78071045 5.57996094 50.14931152 5.78492188 49.4987793 5.99609375 C47.57130087 6.62214147 45.64777234 7.2592708 43.72460938 7.8984375 C34.29404677 11 34.29404677 11 32 11 C32.495 12.98 32.495 12.98 33 15 C33.66 15 34.32 15 35 15 C36.60406253 16.75751978 38.13567377 18.58175224 39.625 20.4375 C40.44226563 21.44683594 41.25953125 22.45617187 42.1015625 23.49609375 C44 26 44 26 44 27 C38.06 27 32.12 27 26 27 C25.34 25.68 24.68 24.36 24 23 C23.34 23 22.68 23 22 23 C20.50181375 20.97835109 19.17213949 18.87679216 17.828125 16.75 C15.69941295 14.30849704 15.69941295 14.30849704 10 15 C7.03 20.445 7.03 20.445 4 26 C-1.94 26 -7.88 26 -14 26 C-12.68 24.35 -11.36 22.7 -10 21 C-8.31979014 18.39938941 -6.82500115 15.70107289 -5.3125 13 C-4.90966797 12.30132812 -4.50683594 11.60265625 -4.09179688 10.8828125 C-3.51461914 9.85800781 -3.51461914 9.85800781 -2.92578125 8.8125 C-2.57942627 8.20019531 -2.23307129 7.58789062 -1.8762207 6.95703125 C-0.72280865 4.5747903 -0.72280865 4.5747903 0 0 Z " fill="#F4F4F4" transform="translate(367,186)"/>
<path d="M0 0 C9.24 0 18.48 0 28 0 C28 0.99 28 1.98 28 3 C26.01432292 3.09765625 24.02864583 3.1953125 22.04296875 3.29296875 C18.98603635 4.35091285 18.41516189 6.15994556 17 9 C16.55608384 11.67484912 16.55608384 11.67484912 16.62145996 14.53175354 C16.61325729 15.63195328 16.60505463 16.73215302 16.59660339 17.86569214 C16.60275162 19.06316071 16.60889984 20.26062927 16.61523438 21.49438477 C16.60698652 23.44233894 16.59873793 25.39029312 16.59046173 27.33824718 C16.58446872 29.42811272 16.58584359 31.51785878 16.58930969 33.60772896 C16.59613735 37.97597014 16.58021774 42.34394987 16.56091309 46.71214294 C16.52307596 55.99558119 16.51027689 65.27899651 16.5 74.5625 C16.48890903 84.56238115 16.47334769 94.56214093 16.42928743 104.56193966 C16.41105063 108.89318171 16.40699624 113.22412323 16.41422272 117.55539429 C16.41538617 119.60947085 16.40969444 121.66339597 16.40104675 123.717453 C16.39060743 126.20681621 16.39046235 128.69625642 16.40339661 131.18560791 C16.33800421 140.11385737 15.97339594 149.88978224 10 157 C9.34 156.67 8.68 156.34 8 156 C8.21205896 155.22297037 8.42411793 154.44594074 8.64260292 153.64536476 C10.75715217 145.33111395 11.43076348 137.64341721 11.38818359 129.08740234 C11.3922615 127.75046361 11.39761014 126.41352826 11.40411377 125.07659912 C11.41763537 121.49041877 11.41255609 117.9045011 11.40297651 114.31831694 C11.39531616 110.55079727 11.40244159 106.78329825 11.40713501 103.01577759 C11.41256746 96.70334881 11.40546031 90.39102593 11.39111328 84.07861328 C11.3747206 76.78187797 11.38013298 69.48539331 11.3965925 62.18866384 C11.41019492 55.90643173 11.41213528 49.6242751 11.40427649 43.34203303 C11.39960218 39.59680922 11.39896986 35.85170348 11.40888596 32.10648727 C11.41914216 27.94372337 11.40493908 23.78139507 11.38818359 19.61865234 C11.39425629 18.37816132 11.40032898 17.13767029 11.40658569 15.85958862 C11.39812622 14.72992676 11.38966675 13.60026489 11.38095093 12.43637085 C11.37981985 11.4531101 11.37868877 10.46984936 11.37752342 9.45679283 C10.93689112 6.58930907 10.28912052 5.72108506 8 4 C5.96658113 3.22186348 5.96658113 3.22186348 3.8125 2.8125 C2.554375 2.544375 1.29625 2.27625 0 2 C0 1.34 0 0.68 0 0 Z " fill="#D0D0D0" transform="translate(164,6)"/>
<path d="M0 0 C20.46 0 40.92 0 62 0 C61.34 1.65 60.68 3.3 60 5 C52.74 5 45.48 5 38 5 C37.34 6.65 36.68 8.3 36 10 C35.30515134 11.34347071 34.58405639 12.67372949 33.8359375 13.98828125 C33.43632812 14.69404297 33.03671875 15.39980469 32.625 16.12695312 C32.2125 16.84818359 31.8 17.56941406 31.375 18.3125 C30.95476562 19.05306641 30.53453125 19.79363281 30.1015625 20.55664062 C29.07051505 22.37269011 28.03563954 24.18656533 27 26 C21.72 26 16.44 26 11 26 C11 25.01 11 24.02 11 23 C11.66 23 12.32 23 13 23 C13.25523437 22.31550781 13.51046875 21.63101563 13.7734375 20.92578125 C16.08687828 15.40741454 19.13734096 10.24820824 22 5 C15.07 5 8.14 5 1 5 C0.67 3.35 0.34 1.7 0 0 Z " fill="#FAFAFA" transform="translate(171,186)"/>
<path d="M0 0 C2.66446994 0.06661175 5.28924462 0.18244717 7.9453125 0.3515625 C9.31494199 0.40177361 10.68474801 0.44739242 12.0546875 0.48828125 C15.397733 0.60599412 18.7317618 0.77016551 22.0703125 0.9765625 C20.92688728 3.29028193 19.78070186 5.60255927 18.6328125 7.9140625 C18.30732422 8.57341797 17.98183594 9.23277344 17.64648438 9.91210938 C15.18359375 14.86328125 15.18359375 14.86328125 14.0703125 15.9765625 C11.92472423 16.06431855 9.77626829 16.08351469 7.62890625 16.07421875 C6.32373047 16.07099609 5.01855469 16.06777344 3.67382812 16.06445312 C2.2851556 16.05609651 0.89648373 16.04763155 -0.4921875 16.0390625 C-1.88476406 16.03404916 -3.27734231 16.02948597 -4.66992188 16.02539062 C-8.0898862 16.01355684 -11.50976594 15.9970713 -14.9296875 15.9765625 C-14.26658097 14.30847619 -13.59907877 12.64213674 -12.9296875 10.9765625 C-12.60468262 10.10080566 -12.27967773 9.22504883 -11.94482422 8.32275391 C-9.09931944 2.16457192 -6.87318949 0.31544929 0 0 Z " fill="#070707" transform="translate(322.9296875,191.0234375)"/>
</svg>
